# xmcd CD database file
#
# Track frame offsets:
#	150
#	23750
#	49050
#	85085
#	113030
#	140697
#	167720
#	197931
#	225838
#	247076
#	269294
#	285970
#
# Disc length: 4112 seconds
#
# Revision: 0
# Processed by: cddbd v1.5.2PL0 Copyright (c) Steve Scherf et al.
# Submitted via: CDex 1.70beta2
#
DISCID=9d100e0c
DTITLE=Joshua Redman - Back East
DYEAR=2007
DGENRE=Jazz
TTITLE0=The Surrey With the Fringe On Top
TTITLE1=East of the Sun (West of the Sun)
TTITLE2=Zarafah
TTITLE3=Indian Song
TTITLE4=I'm an Old Cowhand
TTITLE5=Wagon Wheels
TTITLE6=Back East
TTITLE7=Mantra #5
TTITLE8=Indonesia
TTITLE9=India
TTITLE10=GJ
TTITLE11=Way Out West
EXTD=YEAR: 2007
EXTT0=
EXTT1=
EXTT2=
EXTT3=
EXTT4=
EXTT5=
EXTT6=
EXTT7=
EXTT8=
EXTT9=
EXTT10=
EXTT11=
PLAYORDER=
